<?xml version="1.0" encoding="UTF-8"?>
<svg width="1000" height="1000" xmlns="http://www.w3.org/2000/svg">
  <defs>
    <style>
      .element { stroke: #000000; stroke-width: 1; }
      .spiral { stroke: #0066CC; stroke-width: 0.5; fill: none; opacity: 0.3; }
    </style>
  </defs>
  
  <!-- Background -->
  <rect width="1000" height="1000" fill="#FFFFFF"/>
  
  <!-- Spiral path -->
  <path class="spiral" d="M 463.20,520.52 L 499.81,431.91 L 539.35,550.24 L 410.82,476.99 L 574.76,440.78 L 467.51,592.36 L 442.71,391.98 L 607.50,533.05 L 376.66,540.46 L 551.54,370.04 L 536.74,626.34 L 367.14,417.95 L 644.26,458.90 L 403.06,621.92 L 473.40,328.51 L 624.57,601.40 L 319.42,499.03 L 622.41,364.58 L 485.98,676.91 L 372.75,345.82 L 687.63,517.80 L 330.86,605.67 L 539.32,292.89 L 598.08,672.51 L 292.05,427.17 L 691.34,400.90 L 409.25,695.57 L 418.44,280.11 L 697.19,598.33 L 269.38,551.12 L 622.59,292.72 L 535.25,728.82 L 301.49,342.24 L 741.60,471.37 L 323.73,676.40 L 495.83,236.73 L 668.27,683.36 L 233.61,467.58 L 706.06,331.33 L 446.38,756.32 L 349.61,261.38 L 760.25,564.67 L 246.51,619.04 L 592.63,227.41 L 602.03,755.96 L 234.02,368.27 L 773.08,405.99 L 345.58,745.88 L 432.13,200.83 L 739.59,665.94 L 193.27,529.28 L 693.31,258.40 L 505.76,801.09 L 275.32,269.24 L 809.42,507.97 L 249.25,694.38 L 538.98,173.93 L 678.10,758.51 L 176.34,418.50 L 781.10,329.54 L 392.01,807.61 L 355.71,187.21 L 805.15,623.67 L 173.93,605.26 L 655.57,189.23 L 580.86,826.22 L 202.83,302.09 L 840.36,434.21 L 276.89,769.88 L 467.01,137.18 L 756.24,736.42 L 133.84,488.17 L 764.84,249.15 L 458.91,855.77 L 273.49,197.38 L 858.83,560.03 L 177.79,688.84 L 595.67,130.21 L 665.32,828.87 L 138.71,357.77 L 849.67,349.39 L 327.87,838.82 L 382.37,121.09 L 829.68,690.56 L 110.91,572.09 L 724.54,171.59 L 541.53,885.54 L 192.22,231.72 L 895.42,479.29 L 205.81,773.38 L 517.39,86.90 L 752.62,807.51 L 88.81,433.01 L 835.26,259.84 L 399.51,895.12 L 291.14,128.31 L 892.13,623.10 L 110.73,664.43 L 661.81,103.28 L 634.36,893.28 L 118.40,289.20 L 910.82,386.59 L 257.52,852.32 L 425.47,63.79 L 836.23,762.03 L 58.00,523.49 L 796.45,172.05 L 487.89,933.56 L 199.71,160.04 L 938.08,537.48 L 135.03,758.92 L 579.60,50.00 L 731.32,876.73 L 58.03,367.36 L 902.26,287.81 L 331.00,919.47 L 325.54,64.14 L 909.82,693.84 L 50.00,623.89 L 734.13,92.45 L 588.04,950.00"/>
  
  <!-- Antenna elements -->
  <circle class="element" cx="463.20" cy="520.52" r="3.0" fill="#CC6600"/>
  <circle class="element" cx="499.81" cy="431.91" r="3.0" fill="#C3610A"/>
  <circle class="element" cx="539.35" cy="550.24" r="3.0" fill="#BD5E12"/>
  <circle class="element" cx="410.82" cy="476.99" r="3.0" fill="#B75B19"/>
  <circle class="element" cx="574.76" cy="440.78" r="3.0" fill="#B2591F"/>
  <circle class="element" cx="467.51" cy="592.36" r="3.0" fill="#AE5724"/>
  <circle class="element" cx="442.71" cy="391.98" r="3.0" fill="#AA5529"/>
  <circle class="element" cx="607.50" cy="533.05" r="3.0" fill="#A6532E"/>
  <circle class="element" cx="376.66" cy="540.46" r="3.0" fill="#A35133"/>
  <circle class="element" cx="551.54" cy="370.04" r="3.0" fill="#9F4F37"/>
  <circle class="element" cx="536.74" cy="626.34" r="3.0" fill="#9C4E3B"/>
  <circle class="element" cx="367.14" cy="417.95" r="3.0" fill="#994C3E"/>
  <circle class="element" cx="644.26" cy="458.90" r="3.0" fill="#964B42"/>
  <circle class="element" cx="403.06" cy="621.92" r="3.0" fill="#944A45"/>
  <circle class="element" cx="473.40" cy="328.51" r="3.0" fill="#914849"/>
  <circle class="element" cx="624.57" cy="601.40" r="3.0" fill="#8E474C"/>
  <circle class="element" cx="319.42" cy="499.03" r="3.0" fill="#8C464F"/>
  <circle class="element" cx="622.41" cy="364.58" r="3.0" fill="#894452"/>
  <circle class="element" cx="485.98" cy="676.91" r="3.0" fill="#874355"/>
  <circle class="element" cx="372.75" cy="345.82" r="3.0" fill="#854258"/>
  <circle class="element" cx="687.63" cy="517.80" r="3.0" fill="#82415B"/>
  <circle class="element" cx="330.86" cy="605.67" r="3.0" fill="#80405E"/>
  <circle class="element" cx="539.32" cy="292.89" r="3.0" fill="#7E3F60"/>
  <circle class="element" cx="598.08" cy="672.51" r="3.0" fill="#7C3E63"/>
  <circle class="element" cx="292.05" cy="427.17" r="3.0" fill="#7A3D66"/>
  <circle class="element" cx="691.34" cy="400.90" r="3.0" fill="#783C68"/>
  <circle class="element" cx="409.25" cy="695.57" r="3.0" fill="#763B6B"/>
  <circle class="element" cx="418.44" cy="280.11" r="3.0" fill="#743A6D"/>
  <circle class="element" cx="697.19" cy="598.33" r="3.0" fill="#72396F"/>
  <circle class="element" cx="269.38" cy="551.12" r="3.0" fill="#703872"/>
  <circle class="element" cx="622.59" cy="292.72" r="3.0" fill="#6E3774"/>
  <circle class="element" cx="535.25" cy="728.82" r="3.0" fill="#6D3676"/>
  <circle class="element" cx="301.49" cy="342.24" r="3.0" fill="#6B3578"/>
  <circle class="element" cx="741.60" cy="471.37" r="3.0" fill="#69347B"/>
  <circle class="element" cx="323.73" cy="676.40" r="3.0" fill="#67337D"/>
  <circle class="element" cx="495.83" cy="236.73" r="3.0" fill="#65327F"/>
  <circle class="element" cx="668.27" cy="683.36" r="3.0" fill="#643281"/>
  <circle class="element" cx="233.61" cy="467.58" r="3.0" fill="#623183"/>
  <circle class="element" cx="706.06" cy="331.33" r="3.0" fill="#613085"/>
  <circle class="element" cx="446.38" cy="756.32" r="3.0" fill="#5F2F87"/>
  <circle class="element" cx="349.61" cy="261.38" r="3.0" fill="#5D2E89"/>
  <circle class="element" cx="760.25" cy="564.67" r="3.0" fill="#5C2E8B"/>
  <circle class="element" cx="246.51" cy="619.04" r="3.0" fill="#5A2D8D"/>
  <circle class="element" cx="592.63" cy="227.41" r="3.0" fill="#592C8F"/>
  <circle class="element" cx="602.03" cy="755.96" r="3.0" fill="#572B91"/>
  <circle class="element" cx="234.02" cy="368.27" r="3.0" fill="#562B93"/>
  <circle class="element" cx="773.08" cy="405.99" r="3.0" fill="#542A95"/>
  <circle class="element" cx="345.58" cy="745.88" r="3.0" fill="#532997"/>
  <circle class="element" cx="432.13" cy="200.83" r="3.0" fill="#512898"/>
  <circle class="element" cx="739.59" cy="665.94" r="3.0" fill="#50289A"/>
  <circle class="element" cx="193.27" cy="529.28" r="3.0" fill="#4E279C"/>
  <circle class="element" cx="693.31" cy="258.40" r="3.0" fill="#4D269E"/>
  <circle class="element" cx="505.76" cy="801.09" r="3.0" fill="#4B25A0"/>
  <circle class="element" cx="275.32" cy="269.24" r="3.0" fill="#4A25A1"/>
  <circle class="element" cx="809.42" cy="507.97" r="3.0" fill="#4924A3"/>
  <circle class="element" cx="249.25" cy="694.38" r="3.0" fill="#4723A5"/>
  <circle class="element" cx="538.98" cy="173.93" r="3.0" fill="#4623A7"/>
  <circle class="element" cx="678.10" cy="758.51" r="3.0" fill="#4522A8"/>
  <circle class="element" cx="176.34" cy="418.50" r="3.0" fill="#4321AA"/>
  <circle class="element" cx="781.10" cy="329.54" r="3.0" fill="#4221AC"/>
  <circle class="element" cx="392.01" cy="807.61" r="3.0" fill="#4120AD"/>
  <circle class="element" cx="355.71" cy="187.21" r="3.0" fill="#3F1FAF"/>
  <circle class="element" cx="805.15" cy="623.67" r="3.0" fill="#3E1FB0"/>
  <circle class="element" cx="173.93" cy="605.26" r="3.0" fill="#3D1EB2"/>
  <circle class="element" cx="655.57" cy="189.23" r="3.0" fill="#3B1DB4"/>
  <circle class="element" cx="580.86" cy="826.22" r="3.0" fill="#3A1DB5"/>
  <circle class="element" cx="202.83" cy="302.09" r="3.0" fill="#391CB7"/>
  <circle class="element" cx="840.36" cy="434.21" r="3.0" fill="#381CB8"/>
  <circle class="element" cx="276.89" cy="769.88" r="3.0" fill="#361BBA"/>
  <circle class="element" cx="467.01" cy="137.18" r="3.0" fill="#351ABB"/>
  <circle class="element" cx="756.24" cy="736.42" r="3.0" fill="#341ABD"/>
  <circle class="element" cx="133.84" cy="488.17" r="3.0" fill="#3319BE"/>
  <circle class="element" cx="764.84" cy="249.15" r="3.0" fill="#3219C0"/>
  <circle class="element" cx="458.91" cy="855.77" r="3.0" fill="#3018C1"/>
  <circle class="element" cx="273.49" cy="197.38" r="3.0" fill="#2F17C3"/>
  <circle class="element" cx="858.83" cy="560.03" r="3.0" fill="#2E17C4"/>
  <circle class="element" cx="177.79" cy="688.84" r="3.0" fill="#2D16C6"/>
  <circle class="element" cx="595.67" cy="130.21" r="3.0" fill="#2C16C7"/>
  <circle class="element" cx="665.32" cy="828.87" r="3.0" fill="#2B15C9"/>
  <circle class="element" cx="138.71" cy="357.77" r="3.0" fill="#2914CA"/>
  <circle class="element" cx="849.67" cy="349.39" r="3.0" fill="#2814CC"/>
  <circle class="element" cx="327.87" cy="838.82" r="3.0" fill="#2713CD"/>
  <circle class="element" cx="382.37" cy="121.09" r="3.0" fill="#2613CE"/>
  <circle class="element" cx="829.68" cy="690.56" r="3.0" fill="#2512D0"/>
  <circle class="element" cx="110.91" cy="572.09" r="3.0" fill="#2412D1"/>
  <circle class="element" cx="724.54" cy="171.59" r="3.0" fill="#2311D2"/>
  <circle class="element" cx="541.53" cy="885.54" r="3.0" fill="#2211D4"/>
  <circle class="element" cx="192.22" cy="231.72" r="3.0" fill="#2110D5"/>
  <circle class="element" cx="895.42" cy="479.29" r="3.0" fill="#1F0FD7"/>
  <circle class="element" cx="205.81" cy="773.38" r="3.0" fill="#1E0FD8"/>
  <circle class="element" cx="517.39" cy="86.90" r="3.0" fill="#1D0ED9"/>
  <circle class="element" cx="752.62" cy="807.51" r="3.0" fill="#1C0EDB"/>
  <circle class="element" cx="88.81" cy="433.01" r="3.0" fill="#1B0DDC"/>
  <circle class="element" cx="835.26" cy="259.84" r="3.0" fill="#1A0DDD"/>
  <circle class="element" cx="399.51" cy="895.12" r="3.0" fill="#190CDF"/>
  <circle class="element" cx="291.14" cy="128.31" r="3.0" fill="#180CE0"/>
  <circle class="element" cx="892.13" cy="623.10" r="3.0" fill="#170BE1"/>
  <circle class="element" cx="110.73" cy="664.43" r="3.0" fill="#160BE2"/>
  <circle class="element" cx="661.81" cy="103.28" r="3.0" fill="#150AE4"/>
  <circle class="element" cx="634.36" cy="893.28" r="3.0" fill="#140AE5"/>
  <circle class="element" cx="118.40" cy="289.20" r="3.0" fill="#1309E6"/>
  <circle class="element" cx="910.82" cy="386.59" r="3.0" fill="#1209E8"/>
  <circle class="element" cx="257.52" cy="852.32" r="3.0" fill="#1108E9"/>
  <circle class="element" cx="425.47" cy="63.79" r="3.0" fill="#1008EA"/>
  <circle class="element" cx="836.23" cy="762.03" r="3.0" fill="#0F07EB"/>
  <circle class="element" cx="58.00" cy="523.49" r="3.0" fill="#0E07ED"/>
  <circle class="element" cx="796.45" cy="172.05" r="3.0" fill="#0D06EE"/>
  <circle class="element" cx="487.89" cy="933.56" r="3.0" fill="#0C06EF"/>
  <circle class="element" cx="199.71" cy="160.04" r="3.0" fill="#0B05F0"/>
  <circle class="element" cx="938.08" cy="537.48" r="3.0" fill="#0A05F1"/>
  <circle class="element" cx="135.03" cy="758.92" r="3.0" fill="#0904F3"/>
  <circle class="element" cx="579.60" cy="50.00" r="3.0" fill="#0804F4"/>
  <circle class="element" cx="731.32" cy="876.73" r="3.0" fill="#0703F5"/>
  <circle class="element" cx="58.03" cy="367.36" r="3.0" fill="#0603F6"/>
  <circle class="element" cx="902.26" cy="287.81" r="3.0" fill="#0502F7"/>
  <circle class="element" cx="331.00" cy="919.47" r="3.0" fill="#0402F9"/>
  <circle class="element" cx="325.54" cy="64.14" r="3.0" fill="#0301FA"/>
  <circle class="element" cx="909.82" cy="693.84" r="3.0" fill="#0201FB"/>
  <circle class="element" cx="50.00" cy="623.89" r="3.0" fill="#0100FC"/>
  <circle class="element" cx="734.13" cy="92.45" r="3.0" fill="#0000FD"/>
  <circle class="element" cx="588.04" cy="950.00" r="3.0" fill="#0000FF"/>

  <!-- Title -->
  <text x="500.0" y="30" text-anchor="middle" font-family="Arial" font-size="20" font-weight="bold">
    GAFAA Phyllotactic Antenna Array (121 elements)
  </text>
</svg>
