<?xml version="1.0" encoding="UTF-8"?>
<svg width="1000" height="1000" xmlns="http://www.w3.org/2000/svg">
  <defs>
    <style>
      .node { stroke: #000000; stroke-width: 1; }
      .spiral { stroke: #0066CC; stroke-width: 0.5; fill: none; opacity: 0.3; }
    </style>
  </defs>
  <rect width="1000" height="1000" fill="#FFFFFF"/>
  <path class="spiral" d="M 500.52,497.73 L 468.75,526.83 L 505.84,437.03 L 545.92,556.95 L 415.67,482.72 L 581.80,446.03 L 473.12,599.64 L 447.98,396.57 L 614.98,539.54 L 381.04,547.04 L 558.27,374.33 L 543.28,634.07 L 371.39,422.89 L 652.23,464.38 L 407.80,629.60 L 479.08,332.25 L 632.28,608.80 L 323.03,505.06 L 630.09,368.81 L 491.83,685.32 L 377.08,349.79 L 696.18,524.07 L 334.63,613.13 L 545.88,296.15 L 605.44,680.87 L 295.30,432.24 L 699.95,405.61 L 414.07,704.23 L 423.38,283.20 L 705.88,605.69 L 272.33,557.85 L 630.28,295.98 L 541.76,737.93 L 304.86,346.16 L 750.88,477.02 L 327.40,684.81 L 501.82,239.23 L 676.56,691.86 L 236.07,473.18 L 714.86,335.10 L 451.70,765.80 L 353.63,264.22 L 769.79,571.58 L 249.14,626.67 L 599.91,229.79 L 609.44,765.43 L 236.49,372.54 L 782.79,410.76 L 349.54,755.22 L 437.26,202.86 L 748.84,674.21 L 195.19,535.72 L 701.94,261.19 L 511.88,811.18 L 278.34,272.18 L 819.61,514.12 L 251.93,703.03 L 545.54,175.59 L 686.53,768.02 L 178.03,423.45 L 790.92,333.30 L 396.60,817.77 L 359.82,189.05 L 815.29,631.37 L 175.60,612.71 L 663.69,191.10 L 587.99,836.63 L 204.88,305.48 L 850.96,439.36 L 279.93,779.54 L 472.61,138.35 L 765.72,745.63 L 134.96,494.06 L 774.43,251.82 L 464.40,866.58 L 276.49,199.36 L 869.69,566.87 L 179.50,697.42 L 602.99,131.29 L 673.58,839.32 L 139.90,361.90 L 860.41,353.41 L 331.60,849.40 L 386.83,122.05 L 840.14,699.16 L 111.73,579.09 L 733.60,173.22 L 548.13,896.75 L 194.13,234.16 L 906.77,485.05 L 207.90,783.09 L 523.66,87.39 L 762.05,817.68 L 89.33,438.15 L 845.80,262.65 L 404.20,906.46 L 294.37,129.36 L 903.43,630.79 L 111.54,672.67 L 670.02,103.99 L 642.20,904.60 L 119.32,292.41 L 922.37,391.11 L 260.30,863.08 L 430.51,63.98 L 846.78,771.59 L 58.11,529.85 L 806.47,173.69 L 493.77,945.41 L 201.72,161.51 L 950.00,544.02 L 136.17,768.44 L 586.70,50.00 L 740.47,887.82 L 58.14,371.62 L 913.70,291.00 L 334.77,931.14 L 329.24,64.33 L 921.36,702.48 L 50.00,631.59 L 743.31,93.02"/>
  <circle class="node" cx="500.52" cy="497.73" r="3.0" fill="#0080FF"/>
  <circle class="node" cx="468.75" cy="526.83" r="3.0" fill="#1774E7"/>
  <circle class="node" cx="505.84" cy="437.03" r="3.0" fill="#206FDE"/>
  <circle class="node" cx="545.92" cy="556.95" r="3.0" fill="#286BD6"/>
  <circle class="node" cx="415.67" cy="482.72" r="3.0" fill="#2E68D0"/>
  <circle class="node" cx="581.80" cy="446.03" r="3.0" fill="#3465CA"/>
  <circle class="node" cx="473.12" cy="599.64" r="3.0" fill="#3963C5"/>
  <circle class="node" cx="447.98" cy="396.57" r="3.0" fill="#3D61C1"/>
  <circle class="node" cx="614.98" cy="539.54" r="3.0" fill="#415EBD"/>
  <circle class="node" cx="381.04" cy="547.04" r="3.0" fill="#455CB9"/>
  <circle class="node" cx="558.27" cy="374.33" r="3.0" fill="#495BB5"/>
  <circle class="node" cx="543.28" cy="634.07" r="3.0" fill="#4D59B1"/>
  <circle class="node" cx="371.39" cy="422.89" r="3.0" fill="#5057AE"/>
  <circle class="node" cx="652.23" cy="464.38" r="3.0" fill="#5355AB"/>
  <circle class="node" cx="407.80" cy="629.60" r="3.0" fill="#5754A7"/>
  <circle class="node" cx="479.08" cy="332.25" r="3.0" fill="#5A52A4"/>
  <circle class="node" cx="632.28" cy="608.80" r="3.0" fill="#5D51A1"/>
  <circle class="node" cx="323.03" cy="505.06" r="3.0" fill="#5F4F9F"/>
  <circle class="node" cx="630.09" cy="368.81" r="3.0" fill="#624E9C"/>
  <circle class="node" cx="491.83" cy="685.32" r="3.0" fill="#654D99"/>
  <circle class="node" cx="377.08" cy="349.79" r="3.0" fill="#684B96"/>
  <circle class="node" cx="696.18" cy="524.07" r="3.0" fill="#6A4A94"/>
  <circle class="node" cx="334.63" cy="613.13" r="3.0" fill="#6D4991"/>
  <circle class="node" cx="545.88" cy="296.15" r="3.0" fill="#6F478F"/>
  <circle class="node" cx="605.44" cy="680.87" r="3.0" fill="#72468C"/>
  <circle class="node" cx="295.30" cy="432.24" r="3.0" fill="#74458A"/>
  <circle class="node" cx="699.95" cy="405.61" r="3.0" fill="#764488"/>
  <circle class="node" cx="414.07" cy="704.23" r="3.0" fill="#784386"/>
  <circle class="node" cx="423.38" cy="283.20" r="3.0" fill="#7B4283"/>
  <circle class="node" cx="705.88" cy="605.69" r="3.0" fill="#7D4181"/>
  <circle class="node" cx="272.33" cy="557.85" r="3.0" fill="#7F407F"/>
  <circle class="node" cx="630.28" cy="295.98" r="3.0" fill="#813E7D"/>
  <circle class="node" cx="541.76" cy="737.93" r="3.0" fill="#833D7B"/>
  <circle class="node" cx="304.86" cy="346.16" r="3.0" fill="#853C79"/>
  <circle class="node" cx="750.88" cy="477.02" r="3.0" fill="#873B77"/>
  <circle class="node" cx="327.40" cy="684.81" r="3.0" fill="#893A75"/>
  <circle class="node" cx="501.82" cy="239.23" r="3.0" fill="#8B3973"/>
  <circle class="node" cx="676.56" cy="691.86" r="3.0" fill="#8D3871"/>
  <circle class="node" cx="236.07" cy="473.18" r="3.0" fill="#8F376F"/>
  <circle class="node" cx="714.86" cy="335.10" r="3.0" fill="#91376D"/>
  <circle class="node" cx="451.70" cy="765.80" r="3.0" fill="#93366B"/>
  <circle class="node" cx="353.63" cy="264.22" r="3.0" fill="#953569"/>
  <circle class="node" cx="769.79" cy="571.58" r="3.0" fill="#963468"/>
  <circle class="node" cx="249.14" cy="626.67" r="3.0" fill="#983366"/>
  <circle class="node" cx="599.91" cy="229.79" r="3.0" fill="#9A3264"/>
  <circle class="node" cx="609.44" cy="765.43" r="3.0" fill="#9C3162"/>
  <circle class="node" cx="236.49" cy="372.54" r="3.0" fill="#9D3061"/>
  <circle class="node" cx="782.79" cy="410.76" r="3.0" fill="#9F2F5F"/>
  <circle class="node" cx="349.54" cy="755.22" r="3.0" fill="#A12F5D"/>
  <circle class="node" cx="437.26" cy="202.86" r="3.0" fill="#A22E5C"/>
  <circle class="node" cx="748.84" cy="674.21" r="3.0" fill="#A42D5A"/>
  <circle class="node" cx="195.19" cy="535.72" r="3.0" fill="#A62C58"/>
  <circle class="node" cx="701.94" cy="261.19" r="3.0" fill="#A72B57"/>
  <circle class="node" cx="511.88" cy="811.18" r="3.0" fill="#A92A55"/>
  <circle class="node" cx="278.34" cy="272.18" r="3.0" fill="#AB2A53"/>
  <circle class="node" cx="819.61" cy="514.12" r="3.0" fill="#AC2952"/>
  <circle class="node" cx="251.93" cy="703.03" r="3.0" fill="#AE2850"/>
  <circle class="node" cx="545.54" cy="175.59" r="3.0" fill="#AF274F"/>
  <circle class="node" cx="686.53" cy="768.02" r="3.0" fill="#B1274D"/>
  <circle class="node" cx="178.03" cy="423.45" r="3.0" fill="#B2264C"/>
  <circle class="node" cx="790.92" cy="333.30" r="3.0" fill="#B4254A"/>
  <circle class="node" cx="396.60" cy="817.77" r="3.0" fill="#B52449"/>
  <circle class="node" cx="359.82" cy="189.05" r="3.0" fill="#B72347"/>
  <circle class="node" cx="815.29" cy="631.37" r="3.0" fill="#B82346"/>
  <circle class="node" cx="175.60" cy="612.71" r="3.0" fill="#BA2244"/>
  <circle class="node" cx="663.69" cy="191.10" r="3.0" fill="#BB2143"/>
  <circle class="node" cx="587.99" cy="836.63" r="3.0" fill="#BD2141"/>
  <circle class="node" cx="204.88" cy="305.48" r="3.0" fill="#BE2040"/>
  <circle class="node" cx="850.96" cy="439.36" r="3.0" fill="#BF1F3F"/>
  <circle class="node" cx="279.93" cy="779.54" r="3.0" fill="#C11E3D"/>
  <circle class="node" cx="472.61" cy="138.35" r="3.0" fill="#C21E3C"/>
  <circle class="node" cx="765.72" cy="745.63" r="3.0" fill="#C41D3A"/>
  <circle class="node" cx="134.96" cy="494.06" r="3.0" fill="#C51C39"/>
  <circle class="node" cx="774.43" cy="251.82" r="3.0" fill="#C61C38"/>
  <circle class="node" cx="464.40" cy="866.58" r="3.0" fill="#C81B36"/>
  <circle class="node" cx="276.49" cy="199.36" r="3.0" fill="#C91A35"/>
  <circle class="node" cx="869.69" cy="566.87" r="3.0" fill="#CA1A34"/>
  <circle class="node" cx="179.50" cy="697.42" r="3.0" fill="#CC1932"/>
  <circle class="node" cx="602.99" cy="131.29" r="3.0" fill="#CD1831"/>
  <circle class="node" cx="673.58" cy="839.32" r="3.0" fill="#CE1830"/>
  <circle class="node" cx="139.90" cy="361.90" r="3.0" fill="#D0172E"/>
  <circle class="node" cx="860.41" cy="353.41" r="3.0" fill="#D1162D"/>
  <circle class="node" cx="331.60" cy="849.40" r="3.0" fill="#D2162C"/>
  <circle class="node" cx="386.83" cy="122.05" r="3.0" fill="#D4152A"/>
  <circle class="node" cx="840.14" cy="699.16" r="3.0" fill="#D51429"/>
  <circle class="node" cx="111.73" cy="579.09" r="3.0" fill="#D61428"/>
  <circle class="node" cx="733.60" cy="173.22" r="3.0" fill="#D71327"/>
  <circle class="node" cx="548.13" cy="896.75" r="3.0" fill="#D91325"/>
  <circle class="node" cx="194.13" cy="234.16" r="3.0" fill="#DA1224"/>
  <circle class="node" cx="906.77" cy="485.05" r="3.0" fill="#DB1123"/>
  <circle class="node" cx="207.90" cy="783.09" r="3.0" fill="#DC1122"/>
  <circle class="node" cx="523.66" cy="87.39" r="3.0" fill="#DE1020"/>
  <circle class="node" cx="762.05" cy="817.68" r="3.0" fill="#DF0F1F"/>
  <circle class="node" cx="89.33" cy="438.15" r="3.0" fill="#E00F1E"/>
  <circle class="node" cx="845.80" cy="262.65" r="3.0" fill="#E10E1D"/>
  <circle class="node" cx="404.20" cy="906.46" r="3.0" fill="#E20E1C"/>
  <circle class="node" cx="294.37" cy="129.36" r="3.0" fill="#E40D1A"/>
  <circle class="node" cx="903.43" cy="630.79" r="3.0" fill="#E50C19"/>
  <circle class="node" cx="111.54" cy="672.67" r="3.0" fill="#E60C18"/>
  <circle class="node" cx="670.02" cy="103.99" r="3.0" fill="#E70B17"/>
  <circle class="node" cx="642.20" cy="904.60" r="3.0" fill="#E80B16"/>
  <circle class="node" cx="119.32" cy="292.41" r="3.0" fill="#E90A15"/>
  <circle class="node" cx="922.37" cy="391.11" r="3.0" fill="#EB0913"/>
  <circle class="node" cx="260.30" cy="863.08" r="3.0" fill="#EC0912"/>
  <circle class="node" cx="430.51" cy="63.98" r="3.0" fill="#ED0811"/>
  <circle class="node" cx="846.78" cy="771.59" r="3.0" fill="#EE0810"/>
  <circle class="node" cx="58.11" cy="529.85" r="3.0" fill="#EF070F"/>
  <circle class="node" cx="806.47" cy="173.69" r="3.0" fill="#F0070E"/>
  <circle class="node" cx="493.77" cy="945.41" r="3.0" fill="#F1060D"/>
  <circle class="node" cx="201.72" cy="161.51" r="3.0" fill="#F3060B"/>
  <circle class="node" cx="950.00" cy="544.02" r="3.0" fill="#F4050A"/>
  <circle class="node" cx="136.17" cy="768.44" r="3.0" fill="#F50409"/>
  <circle class="node" cx="586.70" cy="50.00" r="3.0" fill="#F60408"/>
  <circle class="node" cx="740.47" cy="887.82" r="3.0" fill="#F70307"/>
  <circle class="node" cx="58.14" cy="371.62" r="3.0" fill="#F80306"/>
  <circle class="node" cx="913.70" cy="291.00" r="3.0" fill="#F90205"/>
  <circle class="node" cx="334.77" cy="931.14" r="3.0" fill="#FA0204"/>
  <circle class="node" cx="329.24" cy="64.33" r="3.0" fill="#FB0103"/>
  <circle class="node" cx="921.36" cy="702.48" r="3.0" fill="#FC0102"/>
  <circle class="node" cx="50.00" cy="631.59" r="3.0" fill="#FD0001"/>
  <circle class="node" cx="743.31" cy="93.02" r="3.0" fill="#FF0000"/>

  <text x="500.0" y="30" text-anchor="middle" font-family="Arial" font-size="20" font-weight="bold">
    Phyllux Vault Geometric Lattice (121 nodes)
  </text>
</svg>
